<svg width="30" height="30" viewBox="0 0 30 30" fill="none" xmlns="http://www.w3.org/2000/svg">
<path d="M30 15C30 6.71573 23.2843 0 15 0C6.71573 0 0 6.71573 0 15C0 23.2843 6.71573 30 15 30C23.2843 30 30 23.2843 30 15Z" fill="#51B56D"/>
<path d="M18.5526 7.10547H11.4473C10.2957 7.10547 9.1913 7.56294 8.377 8.37724C7.56269 9.19154 7.10522 10.296 7.10522 11.4476V18.5528C7.10522 19.7044 7.56269 20.8089 8.377 21.6232C9.1913 22.4375 10.2957 22.8949 11.4473 22.8949H18.5526C19.7042 22.8949 20.8086 22.4375 21.6229 21.6232C22.4372 20.8089 22.8947 19.7044 22.8947 18.5528V11.4476C22.8947 10.296 22.4372 9.19154 21.6229 8.37724C20.8086 7.56294 19.7042 7.10547 18.5526 7.10547ZM21.5131 17.9292C21.5131 18.8797 21.1355 19.7914 20.4633 20.4636C19.7912 21.1357 18.8795 21.5134 17.9289 21.5134H12.071C11.1204 21.5134 10.2088 21.1357 9.53659 20.4636C8.86442 19.7914 8.4868 18.8797 8.4868 17.9292V12.0713C8.4868 11.1207 8.86442 10.209 9.53659 9.53684C10.2088 8.86467 11.1204 8.48705 12.071 8.48705H17.9289C18.8795 8.48705 19.7912 8.86467 20.4633 9.53684C21.1355 10.209 21.5131 11.1207 21.5131 12.0713V17.9292Z" fill="#F6F7F9"/>
<path d="M17.8796 12.1505L17.8421 12.113L17.8105 12.0814C17.0643 11.3378 16.0535 10.9204 15 10.9209C14.468 10.9245 13.9419 11.0329 13.4517 11.2399C12.9616 11.4469 12.5171 11.7485 12.1436 12.1273C11.77 12.5062 11.4748 12.9549 11.2747 13.4479C11.0747 13.9409 10.9737 14.4685 10.9776 15.0005C10.9768 16.0802 11.4024 17.1166 12.1618 17.8841C12.5338 18.2606 12.9771 18.5592 13.4657 18.7625C13.9544 18.9658 14.4786 19.0698 15.0079 19.0683C15.8018 19.0516 16.5737 18.8043 17.2294 18.3565C17.8852 17.9087 18.3964 17.2798 18.7009 16.5464C19.0053 15.813 19.0898 15.0069 18.9439 14.2263C18.7981 13.4457 18.4283 12.7245 17.8796 12.1505ZM15 17.6768C14.4691 17.6843 13.948 17.5336 13.503 17.2441C13.058 16.9546 12.7091 16.5393 12.5008 16.0509C12.2925 15.5626 12.2341 15.0233 12.3331 14.5017C12.4321 13.9801 12.684 13.4998 13.0567 13.1217C13.4295 12.7437 13.9063 12.485 14.4264 12.3787C14.9466 12.2723 15.4866 12.3231 15.9778 12.5245C16.469 12.7259 16.8893 13.0689 17.185 13.5098C17.4808 13.9507 17.6387 14.4696 17.6388 15.0005C17.6414 15.3495 17.5752 15.6957 17.444 16.0191C17.3127 16.3425 17.1191 16.6369 16.874 16.8855C16.6289 17.134 16.3373 17.3318 16.0157 17.4676C15.6942 17.6034 15.349 17.6745 15 17.6768Z" fill="#F6F7F9"/>
<path d="M20.2164 10.7327C20.2175 10.8594 20.1935 10.985 20.146 11.1024C20.0984 11.2198 20.0281 11.3266 19.9392 11.4168C19.8503 11.507 19.7445 11.5788 19.6278 11.628C19.5111 11.6773 19.3858 11.703 19.2592 11.7038C19.1336 11.7037 19.0093 11.6787 18.8934 11.6303C18.7775 11.5819 18.6724 11.5109 18.5842 11.4215C18.4505 11.2859 18.3595 11.114 18.3226 10.9271C18.2857 10.7402 18.3044 10.5466 18.3765 10.3703C18.4486 10.194 18.5709 10.0427 18.7281 9.93522C18.8854 9.82773 19.0707 9.76876 19.2612 9.76563C19.4841 9.76558 19.6999 9.84382 19.871 9.98668L19.8908 10.0064C19.9226 10.0323 19.9517 10.0614 19.9776 10.0933L19.9993 10.1169C20.1406 10.291 20.2173 10.5086 20.2164 10.7327Z" fill="#F6F7F9"/>
</svg>
