<svg width="30" height="30" viewBox="0 0 30 30" fill="none" xmlns="http://www.w3.org/2000/svg">
<g clip-path="url(#clip0_26_1235)">
<path d="M30 15C30 6.71573 23.2843 0 15 0C6.71573 0 0 6.71573 0 15C0 23.2843 6.71573 30 15 30C23.2843 30 30 23.2843 30 15Z" fill="#51B56D"/>
<path fill-rule="evenodd" clip-rule="evenodd" d="M14.8303 19.4659H15.7737C15.9339 19.4457 16.0841 19.3768 16.2039 19.2685C16.2908 19.148 16.3365 19.0026 16.3342 18.8541C16.3342 18.8541 16.3164 17.5889 16.9046 17.4014C17.4928 17.2139 18.227 18.6251 19.0164 19.1778C19.6085 19.5863 20.0645 19.4975 20.0645 19.4975L22.1743 19.4679C22.1743 19.4679 23.2776 19.3988 22.7546 18.5324C22.7112 18.4613 22.4487 17.8909 21.1757 16.7185C19.8533 15.4909 20.0309 15.6903 21.6237 13.5606C22.5947 12.2679 22.9816 11.4784 22.8612 11.1409C22.7408 10.8034 22.0322 10.9041 22.0322 10.9041L19.6638 10.9179C19.558 10.9056 19.4509 10.9248 19.3559 10.9731C19.2651 11.0404 19.1925 11.1293 19.1447 11.2317C18.8993 11.8698 18.6064 12.4887 18.2684 13.083C17.2105 14.8771 16.7882 14.9718 16.6164 14.8593C16.2217 14.5988 16.3145 13.8153 16.3145 13.2587C16.3145 11.5199 16.577 10.7935 15.7993 10.606C15.4373 10.5175 15.0645 10.4803 14.6921 10.4955C13.8454 10.4955 13.1289 10.4955 12.7184 10.6929C12.448 10.8251 12.2388 11.1212 12.3671 11.137C12.6369 11.1621 12.8871 11.2883 13.0678 11.4902C13.3105 11.8199 13.3026 12.5639 13.3026 12.5639C13.3026 12.5639 13.4428 14.6126 12.975 14.8672C12.6553 15.0409 12.2171 14.6837 11.2737 13.0554C10.9541 12.4886 10.6713 11.9018 10.427 11.2988C10.3825 11.1966 10.3149 11.1061 10.2296 11.0343C10.1913 11.0072 10.1503 10.9841 10.1072 10.9652C9.98292 10.9108 9.84813 10.8846 9.71249 10.8883L7.60065 10.9021C7.60065 10.9021 7.26118 10.9021 7.13684 11.06C7.01249 11.2179 7.13684 11.4547 7.13684 11.4547C7.13684 11.4547 8.91513 15.5916 10.9145 17.6817C12.748 19.5903 14.8303 19.458 14.8303 19.458V19.4659Z" fill="#F6F7F9"/>
</g>
<defs>
<clipPath id="clip0_26_1235">
<rect width="30" height="30" fill="white"/>
</clipPath>
</defs>
</svg>
