<svg width="30" height="30" viewBox="0 0 30 30" fill="none" xmlns="http://www.w3.org/2000/svg">
<path d="M30 15C30 6.71573 23.2843 0 15 0C6.71573 0 0 6.71573 0 15C0 23.2843 6.71573 30 15 30C23.2843 30 30 23.2843 30 15Z" fill="#51B56D"/>
<path d="M15 7.10547C13.5455 7.10602 12.1195 7.50835 10.8793 8.26806C9.63901 9.02777 8.63273 10.1153 7.97144 11.4107C7.31016 12.7062 7.01958 14.1591 7.13177 15.6092C7.24396 17.0593 7.75456 18.4502 8.60722 19.6285L7.62038 22.5614L10.6579 21.5903C11.6855 22.2682 12.8573 22.6963 14.0798 22.8406C15.3024 22.9848 16.5417 22.8412 17.6988 22.4211C18.8559 22.0011 19.8988 21.3163 20.7441 20.4214C21.5894 19.5265 22.2137 18.4463 22.5672 17.2671C22.9207 16.088 22.9935 14.8425 22.7799 13.6302C22.5663 12.4178 22.0721 11.2723 21.3369 10.2849C20.6016 9.29761 19.6457 8.49591 18.5454 7.94386C17.4451 7.3918 16.231 7.1047 15 7.10547ZM19.196 18.2706L18.3552 19.1114C17.471 19.9956 15.1263 19.0226 13.048 16.9403C10.9697 14.8581 10.0381 12.5193 10.8789 11.6449L11.7197 10.8042C11.8825 10.6545 12.0956 10.5714 12.3168 10.5714C12.5379 10.5714 12.751 10.6545 12.9138 10.8042L14.1533 12.0397C14.2543 12.1379 14.3285 12.2605 14.3686 12.3956C14.4087 12.5308 14.4134 12.6739 14.3823 12.8114C14.3512 12.9489 14.2853 13.0761 14.191 13.1808C14.0966 13.2855 13.9769 13.3642 13.8434 13.4094C13.6464 13.4724 13.4813 13.6088 13.3824 13.7904C13.2835 13.9721 13.2585 14.1848 13.3125 14.3844C13.5335 15.312 14.7276 16.4627 15.6138 16.6838C15.8123 16.7254 16.0193 16.6941 16.1966 16.5955C16.3738 16.4968 16.5096 16.3376 16.5789 16.1469C16.6236 16.0115 16.7026 15.8899 16.8083 15.7941C16.914 15.6983 17.0427 15.6315 17.1819 15.6003C17.3211 15.5691 17.4659 15.5745 17.6024 15.616C17.7389 15.6575 17.8623 15.7336 17.9605 15.837L19.198 17.0765C19.3474 17.2396 19.4301 17.4528 19.4297 17.6739C19.4294 17.8951 19.346 18.108 19.196 18.2706Z" fill="#F6F7F9"/>
</svg>
