<svg xmlns="http://www.w3.org/2000/svg" width="60" height="60" viewBox="0 0 200 200" version="1.1">
	<path d="M 46.709 3.624 C 46.319 4.014, 46 6.697, 46 9.585 C 46 18.427, 46.864 18, 28.975 18 C 20.279 18, 12.452 18.273, 11.582 18.607 C 10.712 18.941, 10 20.011, 10 20.985 C 10 24.765, 12.121 25.150, 28.923 24.411 L 45 23.705 45 28.713 C 45 31.467, 44.719 35.774, 44.375 38.283 C 43.868 41.983, 43.303 42.958, 41.394 43.437 C 37.739 44.355, 32.180 50.522, 31.437 54.485 C 29.933 62.502, 34.133 70.372, 40.560 71.577 C 43.384 72.107, 44 72.668, 44 74.707 C 44 79.175, 40.994 82.752, 35.609 84.689 C 29.823 86.771, 26.624 90.693, 25.628 96.925 C 24.535 103.760, 27.542 113.540, 32.367 118.845 C 35.766 122.582, 39.471 124, 45.836 124 C 53.564 124, 61.234 120.166, 65.419 114.212 C 70.294 107.275, 70.160 93.956, 65.215 94.023 C 64.272 94.036, 61.250 95.275, 58.500 96.777 C 54.565 98.926, 53.500 100.039, 53.500 102.004 C 53.500 104.026, 53.975 104.482, 56 104.403 C 57.375 104.349, 59.288 103.964, 60.250 103.546 C 61.622 102.950, 62 103.270, 62 105.025 C 62 113.800, 47.217 121.075, 39.387 116.153 C 31.399 111.132, 29.278 93.548, 36.402 91.408 C 44.894 88.856, 50 82.813, 50 75.314 C 50 71.579, 50.285 71.175, 54.148 69.433 C 59.294 67.113, 61.991 62.880, 61.996 57.118 C 62.001 51.670, 59.236 46.981, 54.524 44.443 C 51.004 42.547, 51 42.537, 51.014 35.523 C 51.021 31.660, 51.299 27.488, 51.630 26.250 L 52.233 24 99.867 23.860 C 126.065 23.783, 156.950 23.445, 168.500 23.110 L 189.500 22.500 189.500 20 L 189.500 17.500 120.792 17.654 L 52.084 17.807 51.792 10.654 C 51.534 4.328, 51.264 3.466, 49.459 3.208 C 48.336 3.047, 47.099 3.235, 46.709 3.624 M 105 47.502 C 84.578 52.083, 73.504 60.165, 65.221 76.534 C 61.805 83.284, 62.936 84, 77.018 84 L 88.937 84 89.218 95.738 C 89.549 109.515, 90.103 110.107, 97.721 104.818 C 102.110 101.771, 103.121 101.500, 110.101 101.500 C 116.813 101.500, 118.508 101.910, 124.601 105.008 C 129.878 107.691, 132.241 109.623, 134.651 113.224 C 142.717 125.272, 138.277 142.052, 124.513 151.539 C 118.767 155.499, 118.762 155.500, 107.574 155.831 L 96.382 156.163 93.016 149.531 C 91.165 145.884, 88.191 141.618, 86.407 140.052 C 82.498 136.620, 72.986 132.897, 67.537 132.667 C 62.234 132.443, 61.942 134.348, 65.948 143.038 C 71.997 156.162, 72.033 165.996, 66.100 184.871 C 64.481 190.024, 63.414 194.916, 63.731 195.742 C 65.053 199.186, 82.223 194.344, 87.711 188.978 C 89.409 187.318, 91.770 183.892, 92.958 181.366 C 95.005 177.011, 95.282 176.807, 98.308 177.431 C 111.062 180.060, 120.987 180.914, 128.639 180.041 C 151.978 177.379, 167.462 168.558, 178.953 151.378 C 186.601 139.943, 188.377 132.921, 187.735 116.652 C 186.295 80.135, 172.583 59.287, 143.500 49.394 C 133.578 46.019, 115.560 45.134, 105 47.502 M 41.077 51.589 C 38.502 53.756, 38 54.894, 38 58.566 C 38 62.103, 38.469 63.261, 40.417 64.538 C 42.440 65.863, 43.542 65.934, 47.167 64.971 C 55.885 62.657, 58.356 57.202, 53.077 51.923 C 49.350 48.197, 45.244 48.082, 41.077 51.589 M 110.536 53.049 C 98.096 54.994, 85.663 60.519, 79.899 66.662 C 76.194 70.611, 73 74.967, 73 76.071 C 73 76.415, 77.812 76.990, 83.692 77.350 C 90.448 77.764, 94.700 78.464, 95.240 79.252 C 95.711 79.939, 95.816 84.438, 95.473 89.250 C 95.130 94.063, 95.071 98, 95.342 98 C 95.613 98, 97.812 97.152, 100.230 96.116 C 103.472 94.726, 106.052 92.362, 110.053 87.116 C 115.094 80.506, 118 78.338, 118 81.188 C 118 81.841, 115.956 84.978, 113.457 88.158 L 108.914 93.940 111.546 94.601 C 113.806 95.168, 115.011 94.437, 120.080 89.421 C 124.712 84.837, 126.243 83.843, 127.197 84.797 C 128.151 85.751, 127.384 87.057, 123.629 90.869 C 119.725 94.833, 119.150 95.844, 120.504 96.363 C 123.185 97.392, 123.653 97.195, 128.500 93 C 131.042 90.800, 133.544 89, 134.061 89 C 136.250 89, 134.713 92.072, 130.969 95.183 L 126.937 98.532 129.800 100.223 C 132.565 101.856, 132.786 101.830, 136.278 99.457 C 138.267 98.106, 140.368 97, 140.947 97 C 143.032 97, 141.933 99.541, 139 101.500 C 137.353 102.600, 136.019 103.725, 136.034 104 C 136.050 104.275, 137.173 105.761, 138.529 107.303 L 140.995 110.106 144.342 107.553 C 146.183 106.149, 148.209 105, 148.844 105 C 151.204 105, 149.887 107.818, 146.451 110.121 C 143.393 112.170, 142.979 112.905, 143.461 115.427 C 144.253 119.566, 144.553 119.638, 148.712 116.678 C 151.321 114.822, 152.740 114.349, 153.466 115.094 C 154.185 115.832, 153.282 117.193, 150.500 119.563 C 148.300 121.437, 146.162 122.977, 145.750 122.985 C 145.338 122.993, 145 124.606, 145 126.568 L 145 130.136 147.904 128.068 C 149.502 126.931, 151.302 126, 151.904 126 C 154.355 126, 152.739 128.849, 148.602 131.820 C 146.123 133.600, 143.736 136.320, 143.132 138.052 L 142.060 141.126 145.555 138.966 C 148.867 136.919, 152.800 136.897, 151.542 138.932 C 151.221 139.452, 148.530 141.266, 145.564 142.964 C 142.597 144.661, 137.629 148.550, 134.524 151.606 C 131.186 154.891, 126.300 158.369, 122.570 160.114 C 116.540 162.936, 115.740 163.053, 104.386 162.783 L 92.510 162.500 88.277 154.603 C 82.985 144.731, 81.838 143.473, 76.443 141.635 L 72.089 140.152 74.244 145.326 C 77.438 152.994, 77.405 170.614, 74.176 180.846 C 72.901 184.886, 72.105 188.438, 72.407 188.740 C 73.356 189.689, 81.604 186.051, 83.798 183.715 C 84.953 182.486, 87.022 178.938, 88.396 175.832 C 89.769 172.725, 91.264 169.955, 91.717 169.675 C 92.170 169.395, 96.132 170.035, 100.520 171.097 C 123.652 176.696, 144.928 173.458, 160.108 162.029 C 170.883 153.916, 178.555 142.343, 181.010 130.500 C 183.545 118.266, 179.549 93.499, 172.924 80.380 C 163.269 61.264, 135.576 49.132, 110.536 53.049 M 43.384 55.442 C 41.719 59.781, 46.111 62.746, 49.373 59.484 C 50.605 58.252, 50.747 57.396, 49.963 55.931 C 48.748 53.660, 44.197 53.322, 43.384 55.442 M 103.713 66.621 C 101.250 69.083, 104.550 73.595, 108.010 72.497 C 111.199 71.485, 110.386 66.603, 106.963 66.204 C 105.567 66.041, 104.104 66.229, 103.713 66.621 M 154.510 81.121 C 154.113 82.151, 155.920 85.799, 159.463 91.121 C 167.416 103.068, 169.334 108.530, 169.425 119.500 C 169.492 127.585, 169.212 129.019, 166.673 133.599 C 165.119 136.403, 161.181 141.651, 157.923 145.261 C 151.904 151.930, 150.845 154, 153.453 154 C 155.261 154, 165.867 141.790, 169.616 135.393 C 171.938 131.430, 172.470 129.198, 172.816 121.971 C 173.325 111.312, 171.785 105.541, 165.483 94.500 C 159.422 83.883, 155.356 78.925, 154.510 81.121" stroke="none" fill="#51b56d" fill-rule="evenodd"/>
</svg>